<?xml version="1.0"?>
<svg xmlns="http://www.w3.org/2000/svg" xmlns:xlink="http://www.w3.org/1999/xlink" id="Layer_1" data-name="Layer 1" viewBox="0 0 512 512" width="512" height="512"><defs><linearGradient id="linear-gradient" x1="255.997" y1="492.843" x2="255.997" y2="10.83" gradientUnits="userSpaceOnUse"><stop offset="0.322" stop-color="#a163f5"/><stop offset="0.466" stop-color="#b074ee"/><stop offset="0.752" stop-color="#d8a1dd"/><stop offset="0.898" stop-color="#efbad3"/></linearGradient></defs><title>Artboard 56</title><path d="M446.1,143.108c-20.7,1.6-48.1,7.171-79.425,16.126a149.576,149.576,0,0,0-162.86-38.091c-63.273,24.16-100.782,87.026-95.987,151.562-28.37,17.128-51.276,33.51-66.392,47.509-18.85,17.459-25.73,31.2-21.033,42.014,2,4.618,5.948,8.107,11.715,10.372s13.366,3.212,22.007,3.212c21.377,0,49.17-5.783,71.739-11.609q8.606-2.221,17.683-4.832a149.376,149.376,0,0,0,242.376-21.7,151.332,151.332,0,0,0,19.785-93.023c10.736-6.52,20.766-12.978,29.946-19.3,44.562-30.712,62.862-53.381,55.946-69.3C486.945,145.331,472.061,141.1,446.1,143.108Zm-52.98,56.046a150.616,150.616,0,0,0-12.878-22.908c20.367-2.07,26.756,1.731,27.341,3.076C408.158,180.649,406.4,187.056,393.119,199.154ZM208.808,134.222a135.56,135.56,0,0,1,149.35,36.462,6.962,6.962,0,0,0,1.823,2.088,136,136,0,0,1,21.934,35.709c-2.823,2.18-5.926,4.48-9.375,6.917-27.645,19.532-66.6,40.675-109.7,59.536-53.7,23.5-99.083,37.225-129.491,42.382-1.1-2.452-2.13-4.938-3.077-7.436a136.427,136.427,0,0,1-7.987-32.849,6.95,6.95,0,0,0-.281-2.746C116.425,214.845,150.584,156.454,208.808,134.222ZM110.971,294.028a151.059,151.059,0,0,0,6.214,20.812c.555,1.469,1.146,2.932,1.75,4.39-10.054.894-17.507.441-21.912-1.289a4.614,4.614,0,0,1-2.419-1.593C93.866,314.65,95.781,307.289,110.971,294.028Zm262.872,36.563a135.26,135.26,0,0,1-215.454,24.353c37.018-11.422,78.405-26.962,119.69-45.032,41.762-18.278,80.919-37.965,114.278-57.34A137.39,137.39,0,0,1,373.843,330.591Zm53.866-116.776c-39.29,27.08-94.424,56.653-155.243,83.271C151.337,350.1,60.861,368.851,37.234,359.568c-1.5-.588-3.407-1.572-3.991-2.918-1.124-2.586,1.341-11.007,17.706-26.165a299.59,299.59,0,0,1,32.3-25.3C80.13,311.4,79.621,317,81.763,321.926c1.76,4.051,5.172,7.094,10.142,9.046,4.751,1.866,10.926,2.631,17.867,2.631,15.55,0,34.931-3.845,50.674-7.776,31.571-7.881,69.929-21.4,108.011-38.067,43.934-19.229,83.767-40.867,112.162-60.928,32.366-22.868,45.387-40.232,39.8-53.088-2.151-4.948-6.673-8.38-13.509-10.3,49.256-10.7,69.757-6.634,71.845-1.826C480.726,166.146,472.588,182.884,427.709,213.815Z" style="fill:url(#linear-gradient)"/></svg>
